PathFileType	4	(X/Y/Z)	1H_nor_fast_right.trc
DataRate	CameraRate	NumFrames	NumMarkers	Units	OrigDataRate	OrigDataStartFrame	OrigNumFrames
250.00	250.00	13	18	mm	250.00	2309	9233
Frame#	Time	c7	r_should	r_elb_m	clavicle	r_upa	r_wri_m	l_upa	l_elb_l	l_low	l_wri_l	l_met	l_elb_m	r_elb_l	l_should	r_low	r_wri_l	r_met	l_wri_m
	X1	Y1	Z1	X2	Y2	Z2	X3	Y3	Z3	X4	Y4	Z4	X5	Y5	Z5	X6	Y6	Z6	X7	Y7	Z7	X8	Y8	Z8	X9	Y9	Z9	X10	Y10	Z10	X11	Y11	Z11	X12	Y12	Z12	X13	Y13	Z13	X14	Y14	Z14	X15	Y15	Z15	X16	Y16	Z16	X17	Y17	Z17	X18	Y18	Z18
2309	9.23200	1086.74854	1426.25891	124.82545	1152.45630	1369.93372	277.44073	1109.01587	1079.18018	399.79272	1196.41931	1287.60315	107.00535	1182.68311	1186.54138	378.27103	1237.15247	916.81146	304.53421	1093.14392	1146.90234	-111.24407	1098.71289	1039.42834	-127.47294	1104.39258	916.38934	-118.45444	1122.69067	800.76709	-91.46137	1112.65942	721.52197	-134.19690	1041.73340	1029.77710	-40.57846	1185.35217	1119.98535	411.03586	1101.74243	1361.00916	-53.46258	1231.85535	1035.10608	342.10580	1265.72754	971.71503	260.10419	1325.34375	917.41260	245.09024	1046.33765	794.22217	-100.41853
2310	9.23600	1086.70288	1426.26855	124.88511	1152.28748	1369.98987	277.49619	1109.10889	1079.56726	399.97946	1196.37659	1287.61011	107.11636	1182.67126	1186.86731	378.48569	1238.05774	919.41785	302.62509	1093.17725	1146.87146	-111.12645	1098.74097	1039.40588	-127.34069	1104.45093	916.34900	-118.29425	1122.76172	800.76074	-91.29112	1112.77856	721.50269	-134.00468	1041.75513	1029.75427	-40.47209	1185.33716	1120.71729	411.26035	1101.73401	1360.99548	-53.38100	1232.19055	1037.04138	341.59607	1266.48022	974.84351	258.80893	1326.05713	921.12518	242.98508	1046.42212	794.19073	-100.24219
2311	9.24000	1086.66174	1426.27734	124.94720	1152.08875	1370.07007	277.53711	1109.19788	1079.95593	400.16806	1196.33557	1287.61865	107.21600	1182.66687	1187.19666	378.68506	1238.95068	922.06665	300.73578	1093.20605	1146.85278	-111.01667	1098.76428	1039.38123	-127.21446	1104.50317	916.32520	-118.15177	1122.96851	800.67963	-91.09178	1112.89075	721.47742	-133.80801	1041.78564	1029.73950	-40.36277	1185.33752	1121.45850	411.47894	1101.72498	1360.98523	-53.30319	1232.53198	1039.00513	341.09921	1268.15088	977.21252	257.56116	1326.42517	924.85840	240.67719	1046.50183	794.15820	-100.06379
2312	9.24400	1086.62756	1426.28613	125.00785	1151.87549	1370.16077	277.56702	1109.26465	1080.34656	400.19110	1196.29932	1287.62695	107.31241	1182.67102	1187.52454	378.87729	1239.83398	924.74774	298.86621	1093.23096	1146.83179	-110.91182	1098.79016	1039.35999	-127.07631	1104.21277	917.01971	-118.58390	1123.39075	800.61493	-90.95466	1112.99304	721.46820	-133.61742	1041.81909	1029.72668	-40.26117	1185.35400	1122.19434	411.70236	1101.72046	1360.97668	-53.23575	1232.37402	1041.06824	339.98859	1268.92139	980.37762	256.32629	1326.96594	928.63098	238.54434	1046.57605	794.13422	-99.89585
2313	9.24800	1086.59412	1426.29688	125.06319	1151.65979	1370.25427	277.60052	1109.30811	1080.73901	400.00082	1196.26318	1287.63171	107.40804	1182.67847	1187.86877	379.05963	1240.70471	927.46674	296.99002	1093.24976	1146.81775	-110.81358	1098.81287	1039.34070	-126.94815	1103.48059	918.58423	-119.74128	1123.66345	800.85303	-91.00488	1113.08569	721.47400	-133.43694	1041.84692	1029.71265	-40.14941	1185.38184	1122.91956	411.91351	1101.71460	1360.97168	-53.16891	1231.60645	1042.56409	338.37311	1269.44421	983.74115	255.14525	1327.52576	932.44257	236.44870	1046.64917	794.11969	-99.71975
2314	9.25200	1086.56348	1426.30225	125.11094	1151.43884	1370.35156	277.62936	1109.43738	1081.09485	400.05643	1196.22571	1287.62878	107.50405	1182.68726	1188.20605	379.25214	1241.56995	930.19006	295.12561	1093.25854	1146.80310	-110.71686	1098.82849	1039.31201	-126.82752	1103.67114	918.25342	-119.34383	1123.84021	801.09149	-91.03854	1113.16821	721.47290	-133.24925	1041.86414	1029.70105	-40.04254	1185.44128	1123.66589	412.13846	1101.70752	1360.95959	-53.09991	nan	nan	nan	1269.36145	987.67938	254.00528	1328.06396	936.30792	234.37595	1046.71863	794.10059	-99.52505
2315	9.25600	1086.53015	1426.30237	125.15967	1151.21423	1370.44983	277.65613	1109.58008	1081.43579	400.17468	1196.18896	1287.63074	107.59760	1182.69849	1188.54126	379.44641	1242.37317	932.91571	293.28568	1093.26208	1146.77905	-110.61478	1098.83630	1039.28381	-126.70536	1104.43372	916.73950	-117.97009	1123.75989	801.15210	-90.88017	1113.24707	721.46228	-133.06757	1041.88086	1029.68457	-39.93188	1185.51880	1124.40759	412.36832	1101.69629	1360.94409	-53.02728	nan	nan	nan	1269.29187	991.63641	252.80431	1328.54626	940.17578	232.31732	1046.78101	794.07178	-99.32584
2316	9.26000	1086.49927	1426.30237	125.19833	1150.99231	1370.55396	277.68146	1109.73840	1081.77393	400.30914	1196.15027	1287.62646	107.70103	1182.72144	1188.87854	379.64490	1243.17407	935.66248	291.44492	1093.25793	1146.74976	-110.51482	1098.83667	1039.24963	-126.59299	1104.64001	916.33472	-117.52059	1123.34595	800.79980	-90.33862	1113.31689	721.44012	-132.88538	1041.89783	1029.66406	-39.81984	1185.59460	1125.13403	412.58932	1101.68555	1360.92725	-52.96562	nan	nan	nan	1271.07971	993.97229	251.42448	1329.01770	944.08081	230.29953	1046.84192	794.04102	-99.13808
2317	9.26400	1086.46899	1426.30127	125.23312	1150.76624	1370.66016	277.69934	1109.92676	1082.11084	400.44244	1196.11401	1287.62146	107.80329	1182.75891	1189.21045	379.83661	1243.93347	938.47406	289.64816	1093.24866	1146.71582	-110.42352	1098.84045	1039.21008	-126.49047	1104.70874	916.21173	-117.30797	1123.29102	800.69342	-90.07381	1113.38074	721.41705	-132.70132	1041.91187	1029.65210	-39.70122	1185.68469	1125.87732	412.80652	1101.67615	1360.91077	-52.90937	nan	nan	nan	1271.84509	997.14337	250.23166	1329.48804	948.02985	228.30966	1046.90369	794.00928	-98.94870
2318	9.26800	1086.44385	1426.30371	125.26405	1150.53699	1370.77917	277.71860	1110.17908	1082.43262	400.72757	1196.08276	1287.61560	107.89507	1182.80725	1189.54016	380.01413	1244.67676	941.31555	287.82208	1093.23914	1146.67786	-110.33746	1098.83997	1039.17334	-126.38734	1104.73950	916.16223	-117.15887	1123.32788	800.65295	-89.87489	1113.45215	721.39099	-132.52396	1041.92383	1029.63965	-39.58120	1185.79590	1126.62183	413.01721	1101.67432	1360.88940	-52.85533	nan	nan	nan	1271.48206	1001.06976	249.10019	1329.62231	952.13043	226.12569	1046.96802	793.96722	-98.76421
2319	9.27200	1086.42126	1426.30432	125.29353	1149.93823	1371.20056	277.58743	1110.51465	1082.73499	401.19791	1196.05249	1287.60742	107.98311	1182.86890	1189.86841	380.18478	1245.46375	944.14404	286.02676	1093.22900	1146.64453	-110.25858	1098.83398	1039.13391	-126.28317	1104.76514	916.13629	-117.02189	1123.37781	800.63318	-89.70525	1113.52197	721.35651	-132.34657	1041.94165	1029.62476	-39.45663	1185.92175	1127.35657	413.21240	1101.67871	1360.86584	-52.80711	1235.00635	1055.58728	337.52170	1269.97180	1005.71655	248.03021	1329.67627	956.32343	223.91435	1047.03418	793.92511	-98.58280
2320	9.27600	1086.40381	1426.30371	125.31665	1149.25745	1371.68860	277.41086	1110.78735	1083.04211	401.38776	1196.02576	1287.60571	108.06609	1182.95422	1190.20984	380.35440	1246.26416	946.96179	284.31339	1093.21289	1146.61218	-110.18090	1098.83142	1039.09949	-126.19267	1104.78772	916.10736	-116.89413	1123.42468	800.61743	-89.55208	1113.58484	721.32458	-132.16928	1041.96790	1029.60522	-39.33322	1186.06970	1128.10010	413.39554	1101.68127	1360.84961	-52.76112	1235.21985	1057.12097	337.25537	1270.69775	1008.95764	246.92809	1330.63806	960.12500	222.36650	1047.09192	793.89075	-98.40598
2321	9.28000	1086.39014	1426.31274	125.33687	1149.31494	1371.60437	277.51395	1111.05310	1083.35229	401.50070	1196.00061	1287.61536	108.14390	1183.05908	1190.55945	380.50565	1247.02002	949.72577	282.61340	1093.19849	1146.58142	-110.10693	1098.83362	1039.06641	-126.10793	1104.81665	916.07642	-116.75599	1123.47290	800.59558	-89.40135	1113.64734	721.29358	-131.98450	1041.99463	1029.58411	-39.21390	1186.24487	1128.88342	413.59332	1101.68811	1360.83142	-52.72278	1235.47620	1059.03979	336.93414	1273.08728	1011.29498	245.69714	1331.18481	964.12207	220.58751	1047.14502	793.85565	-98.24311
